<svg width="169" height="169" viewBox="0 0 169 169" version="1.1" xmlns="http://www.w3.org/2000/svg" xmlns:xlink="http://www.w3.org/1999/xlink" xml:space="preserve" xmlns:serif="http://www.serif.com/" style="fill-rule:evenodd;clip-rule:evenodd;stroke-linejoin:round;stroke-miterlimit:2;">
    <g transform="matrix(0.238537,0,0,0.238537,31.0256,23.1178)">
        <g transform="matrix(1.56938,0,0,1.37102,-125.611,-91.7755)">
            <rect x="-2.839" y="-3.749" width="451.442" height="516.758" style="fill:#6750a4;"/>
        </g>
        <g transform="matrix(25.8094,0,0,25.8094,-98.3864,-84.6631)">
            <path d="M11.036,4.138C11.126,4.231 11.177,4.356 11.177,4.486C11.177,4.621 11.123,4.751 11.026,4.845L8.406,7.393C8.312,7.483 8.187,7.534 8.057,7.534C7.873,7.534 7.704,7.433 7.617,7.271L7.107,6.325C7.068,6.252 7.047,6.171 7.047,6.088C7.047,5.813 7.273,5.588 7.547,5.588C7.731,5.588 7.901,5.689 7.988,5.851L8.183,6.214L9.071,5.351C8.787,5.114 8.429,4.984 8.06,4.983C7.175,4.983 6.446,5.712 6.446,6.597C6.446,7.483 7.175,8.212 8.06,8.212C8.682,8.214 9.252,7.852 9.514,7.288C9.597,7.114 9.773,7.003 9.966,7.003C10.24,7.003 10.466,7.229 10.466,7.503C10.466,7.577 10.45,7.65 10.418,7.716C9.986,8.626 9.065,9.208 8.058,9.208C6.625,9.208 5.446,8.029 5.446,6.596C5.446,5.162 6.625,3.983 8.058,3.983C8.059,3.983 8.06,3.983 8.06,3.983C8.699,3.984 9.316,4.223 9.789,4.652L10.329,4.128C10.525,3.937 10.844,3.941 11.036,4.138ZM11.736,7.097L19.054,7.097C19.328,7.097 19.554,6.871 19.554,6.597C19.554,6.323 19.328,6.097 19.054,6.097L11.736,6.097C11.462,6.097 11.236,6.323 11.236,6.597C11.236,6.871 11.462,7.097 11.736,7.097ZM10.329,10.03L9.789,10.554C9.316,10.124 8.699,9.886 8.06,9.885C8.059,9.885 8.058,9.885 8.056,9.885C6.622,9.885 5.442,11.065 5.442,12.499C5.442,13.933 6.622,15.113 8.056,15.113C9.065,15.113 9.987,14.529 10.418,13.618C10.45,13.552 10.466,13.479 10.466,13.405C10.466,13.131 10.24,12.905 9.966,12.905C9.773,12.905 9.597,13.016 9.514,13.189C9.252,13.754 8.682,14.115 8.06,14.113C7.175,14.113 6.446,13.384 6.446,12.499C6.446,11.613 7.175,10.885 8.06,10.885C8.429,10.886 8.787,11.016 9.071,11.253L8.183,12.116L7.988,11.752C7.901,11.591 7.731,11.489 7.547,11.489C7.273,11.489 7.047,11.715 7.047,11.99C7.047,12.073 7.068,12.154 7.107,12.227L7.617,13.173C7.704,13.334 7.873,13.436 8.057,13.436C8.187,13.436 8.312,13.385 8.406,13.294L11.026,10.747C11.124,10.652 11.179,10.522 11.179,10.386C11.179,10.112 10.953,9.886 10.679,9.886C10.548,9.886 10.422,9.938 10.329,10.03L10.329,10.03ZM10.329,15.934L9.789,16.458C9.316,16.028 8.699,15.79 8.06,15.789C8.059,15.789 8.057,15.789 8.056,15.789C6.622,15.789 5.442,16.969 5.442,18.403C5.442,19.837 6.622,21.017 8.056,21.017C9.064,21.017 9.987,20.433 10.418,19.522C10.45,19.455 10.466,19.383 10.466,19.309C10.466,19.035 10.24,18.809 9.966,18.809C9.773,18.809 9.597,18.92 9.514,19.093C9.252,19.658 8.682,20.019 8.06,20.017C7.175,20.017 6.446,19.288 6.446,18.403C6.446,17.517 7.175,16.789 8.06,16.789C8.429,16.789 8.787,16.92 9.071,17.157L8.183,18.02L7.988,17.656C7.901,17.494 7.731,17.393 7.547,17.393C7.273,17.393 7.047,17.619 7.047,17.894C7.047,17.976 7.068,18.058 7.107,18.131L7.617,19.077C7.704,19.239 7.873,19.34 8.057,19.34C8.187,19.34 8.312,19.289 8.406,19.198L11.026,16.65C11.122,16.556 11.176,16.428 11.176,16.293C11.176,16.019 10.95,15.793 10.676,15.793C10.546,15.793 10.422,15.844 10.329,15.934ZM19.054,11.999L11.736,11.999C11.462,11.999 11.236,12.225 11.236,12.499C11.236,12.773 11.462,12.999 11.736,12.999L19.054,12.999C19.328,12.999 19.554,12.773 19.554,12.499C19.554,12.225 19.328,11.999 19.054,11.999ZM19.054,17.889L11.736,17.889C11.462,17.889 11.236,18.114 11.236,18.389C11.236,18.663 11.462,18.889 11.736,18.889L19.054,18.889C19.328,18.889 19.554,18.663 19.554,18.389C19.554,18.114 19.328,17.889 19.054,17.889Z" style="fill:white;fill-rule:nonzero;"/>
        </g>
    </g>
</svg>
